<svg width="500" height="500" viewBox="0 0 500 500" fill="none" xmlns="http://www.w3.org/2000/svg">
<rect width="500" height="500" rx="86" fill="#1648C9"/>
<path fill-rule="evenodd" clip-rule="evenodd" d="M290.173 96.4772C297.149 94.5646 304.376 98.5683 306.455 105.497L388.471 378.883C389.879 383.577 388.596 388.665 385.131 392.131C381.665 395.596 376.577 396.879 371.883 395.471L98.4967 313.455C91.5683 311.376 87.5646 304.149 89.4772 297.173C102.635 249.179 128.059 205.437 163.248 170.248C198.437 135.059 242.179 109.635 290.173 96.4772ZM284.766 125.923C246.123 138.626 210.936 160.239 182.088 189.088C153.239 217.936 131.626 253.123 118.923 291.766L144.452 299.425C156.718 265.458 176.325 234.551 201.938 208.938C227.551 183.325 258.458 163.718 292.425 151.452L284.766 125.923ZM300.094 177.015C270.345 187.983 243.272 205.283 220.778 227.778C198.283 250.272 180.983 277.345 170.015 307.094L355.842 362.842L300.094 177.015ZM266.704 232.348C266.704 224.991 272.669 219.027 280.026 219.027H280.162C287.52 219.027 293.484 224.991 293.484 232.348C293.484 239.706 287.52 245.67 280.162 245.67H280.026C272.669 245.67 266.704 239.706 266.704 232.348ZM212.027 287.026C212.027 279.668 217.991 273.704 225.348 273.704H225.485C232.842 273.704 238.807 279.668 238.807 287.026C238.807 294.383 232.842 300.347 225.485 300.347H225.348C217.991 300.347 212.027 294.383 212.027 287.026ZM280.374 300.695C280.374 293.338 286.338 287.374 293.695 287.374H293.832C301.189 287.374 307.153 293.338 307.153 300.695C307.153 308.052 301.189 314.017 293.832 314.017H293.695C286.338 314.017 280.374 308.052 280.374 300.695Z" fill="white"/>
</svg>
