<svg width="500" height="500" viewBox="0 0 500 500" fill="none" xmlns="http://www.w3.org/2000/svg">
<g clip-path="url(#clip0_3_437)">
<rect width="500" height="500" rx="86" fill="#1648C9"/>
<path fill-rule="evenodd" clip-rule="evenodd" d="M390.836 129.355C397.121 132.936 399.4 140.877 395.971 147.246L260.652 398.553C258.328 402.868 253.823 405.559 248.922 405.559C244.022 405.559 239.517 402.868 237.193 398.553L101.874 147.246C98.4444 140.877 100.724 132.936 107.009 129.355C150.25 104.723 199.158 91.7699 248.922 91.7699C298.687 91.7699 347.595 104.723 390.836 129.355ZM366.192 146.353C329.884 128.011 289.721 118.413 248.922 118.413C208.124 118.413 167.96 128.011 131.653 146.353L144.29 169.821C176.981 154.476 212.701 146.486 248.922 146.486C285.144 146.486 320.864 154.476 353.555 169.821L366.192 146.353ZM340.902 193.32C312.111 180.039 280.734 173.129 248.922 173.129C217.111 173.129 185.734 180.039 156.942 193.32L248.922 364.139L340.902 193.32ZM278.165 208.836C283.368 203.634 291.802 203.634 297.005 208.836L297.101 208.933C302.304 214.135 302.304 222.57 297.101 227.772C291.899 232.975 283.464 232.975 278.262 227.772L278.165 227.675C272.963 222.473 272.963 214.038 278.165 208.836ZM200.84 208.836C206.042 203.634 214.477 203.634 219.679 208.836L219.776 208.933C224.978 214.135 224.978 222.57 219.776 227.772C214.574 232.974 206.139 232.974 200.937 227.772L200.84 227.675C195.638 222.473 195.638 214.038 200.84 208.836ZM239.503 266.83C244.705 261.628 253.14 261.628 258.342 266.83L258.439 266.927C263.641 272.129 263.641 280.564 258.439 285.766C253.236 290.969 244.802 290.969 239.599 285.766L239.503 285.67C234.3 280.467 234.3 272.032 239.503 266.83Z" fill="white"/>
</g>
<defs>
<clipPath id="clip0_3_437">
<rect width="500" height="500" rx="86" fill="white"/>
</clipPath>
</defs>
</svg>
