<svg width="500" height="500" viewBox="0 0 500 500" fill="none" xmlns="http://www.w3.org/2000/svg">
<path fill-rule="evenodd" clip-rule="evenodd" d="M322.01 31.695C332.17 28.9093 342.697 34.7408 345.724 44.832L465.181 443.021C467.232 449.858 465.364 457.269 460.317 462.317C455.269 467.364 447.858 469.232 441.021 467.181L42.832 347.724C32.7408 344.697 26.9093 334.17 29.695 324.01C48.8602 254.107 85.8901 190.396 137.143 139.143C188.396 87.8901 252.107 50.8602 322.01 31.695ZM314.135 74.5826C257.851 93.0844 206.601 124.564 164.583 166.583C122.564 208.601 91.0844 259.851 72.5826 316.135L109.767 327.291C127.631 277.818 156.19 232.8 193.495 195.495C230.8 158.19 275.818 129.631 325.291 111.767L314.135 74.5826ZM336.46 148.999C293.131 164.974 253.698 190.172 220.935 222.935C188.172 255.698 162.974 295.131 146.999 338.46L417.658 419.658L336.46 148.999ZM287.828 229.593C287.828 218.877 296.515 210.19 307.23 210.19H307.43C318.145 210.19 326.832 218.877 326.832 229.593C326.832 240.308 318.145 248.995 307.43 248.995H307.23C296.515 248.995 287.828 240.308 287.828 229.593ZM208.19 309.23C208.19 298.515 216.877 289.828 227.593 289.828H227.792C238.508 289.828 247.195 298.515 247.195 309.23C247.195 319.946 238.508 328.633 227.792 328.633H227.593C216.877 328.633 208.19 319.946 208.19 309.23ZM307.737 329.14C307.737 318.424 316.424 309.737 327.14 309.737H327.339C338.055 309.737 346.742 318.424 346.742 329.14C346.742 339.856 338.055 348.543 327.339 348.543H327.14C316.424 348.543 307.737 339.856 307.737 329.14Z" fill="#0F51FB"/>
</svg>
