<svg width="500" height="500" viewBox="0 0 500 500" fill="none" xmlns="http://www.w3.org/2000/svg">
<g clip-path="url(#clip0_3_437)">
<rect width="500" height="500" rx="86" fill="#1648C9"/>
<path fill-rule="evenodd" clip-rule="evenodd" d="M423.456 113.364C431.186 117.767 433.99 127.535 429.772 135.367L263.348 444.442C260.49 449.749 254.95 453.058 248.922 453.058C242.895 453.058 237.355 449.749 234.497 444.442L68.0724 135.367C63.8548 127.535 66.6583 117.767 74.3882 113.364C127.569 83.0698 187.719 67.1392 248.922 67.1392C310.126 67.1392 370.276 83.0698 423.456 113.364ZM393.148 134.27C348.495 111.711 299.099 99.9065 248.922 99.9065C198.746 99.9065 149.35 111.711 104.697 134.27L120.238 163.132C160.444 144.259 204.374 134.432 248.922 134.432C293.47 134.432 337.401 144.259 377.607 163.132L393.148 134.27ZM362.045 192.032C326.636 175.699 288.046 167.2 248.922 167.2C209.799 167.2 171.209 175.699 135.799 192.032L248.922 402.117L362.045 192.032ZM284.887 211.115C291.286 204.717 301.659 204.717 308.057 211.115L308.176 211.234C314.574 217.632 314.574 228.005 308.176 234.404C301.778 240.802 291.404 240.802 285.006 234.404L284.887 234.285C278.489 227.887 278.489 217.513 284.887 211.115ZM189.788 211.115C196.186 204.717 206.559 204.717 212.957 211.115L213.076 211.234C219.475 217.632 219.475 228.005 213.076 234.404C206.678 240.802 196.305 240.802 189.906 234.404L189.788 234.285C183.389 227.887 183.389 217.513 189.788 211.115ZM237.337 282.44C243.736 276.041 254.109 276.041 260.507 282.44L260.626 282.559C267.024 288.957 267.024 299.33 260.626 305.729C254.228 312.127 243.854 312.127 237.456 305.729L237.337 305.61C230.939 299.211 230.939 288.838 237.337 282.44Z" fill="white"/>
</g>
<defs>
<clipPath id="clip0_3_437">
<rect width="500" height="500" rx="86" fill="white"/>
</clipPath>
</defs>
</svg>
