<svg width="500" height="500" viewBox="0 0 500 500" fill="none" xmlns="http://www.w3.org/2000/svg">
<g clip-path="url(#clip0_4_457)">
<path fill-rule="evenodd" clip-rule="evenodd" d="M423.456 102.364C431.186 106.767 433.99 116.535 429.772 124.367L263.348 433.442C260.49 438.749 254.95 442.058 248.922 442.058C242.895 442.058 237.355 438.749 234.497 433.442L68.0724 124.367C63.8548 116.535 66.6583 106.767 74.3882 102.364C127.569 72.0698 187.719 56.1392 248.922 56.1392C310.126 56.1392 370.276 72.0698 423.456 102.364ZM393.148 123.27C348.495 100.711 299.099 88.9065 248.922 88.9065C198.746 88.9065 149.35 100.711 104.697 123.27L120.238 152.132C160.444 133.259 204.374 123.432 248.922 123.432C293.47 123.432 337.401 133.259 377.607 152.132L393.148 123.27ZM362.045 181.032C326.636 164.699 288.046 156.2 248.922 156.2C209.799 156.2 171.209 164.699 135.799 181.032L248.922 391.117L362.045 181.032ZM284.887 200.115C291.286 193.717 301.659 193.717 308.057 200.115L308.176 200.234C314.574 206.632 314.574 217.005 308.176 223.404C301.778 229.802 291.404 229.802 285.006 223.404L284.887 223.285C278.489 216.887 278.489 206.513 284.887 200.115ZM189.788 200.115C196.186 193.717 206.559 193.717 212.957 200.115L213.076 200.234C219.475 206.632 219.475 217.005 213.076 223.404C206.678 229.802 196.305 229.802 189.906 223.404L189.788 223.285C183.389 216.887 183.389 206.513 189.788 200.115ZM237.337 271.44C243.736 265.041 254.109 265.041 260.507 271.44L260.626 271.559C267.024 277.957 267.024 288.33 260.626 294.729C254.228 301.127 243.854 301.127 237.456 294.729L237.337 294.61C230.939 288.211 230.939 277.838 237.337 271.44Z" fill="white"/>
</g>
<defs>
<clipPath id="clip0_4_457">
<rect width="500" height="500" fill="white"/>
</clipPath>
</defs>
</svg>
